<svg width="198" height="46" viewBox="0 0 198 46" fill="none" xmlns="http://www.w3.org/2000/svg">
<path d="M83.6608 22H80.0528L78.9308 18.898H73.4968L72.5068 22H68.9868L74.2228 6.6H78.2928L83.6608 22ZM78.1168 15.928L76.2908 9.724L74.4648 15.928H78.1168ZM84.0997 6.6H87.3337V12.232C87.9644 11.1467 88.9031 10.604 90.1497 10.604C90.8097 10.604 91.3964 10.714 91.9097 10.934C92.4231 11.154 92.8411 11.4473 93.1637 11.814C93.4864 12.166 93.7504 12.5913 93.9557 13.09C94.1757 13.5887 94.3224 14.0947 94.3957 14.608C94.4837 15.1067 94.5277 15.6347 94.5277 16.192C94.5277 16.9693 94.4397 17.71 94.2637 18.414C94.1024 19.118 93.8457 19.7853 93.4937 20.416C93.1564 21.032 92.6651 21.5233 92.0197 21.89C91.3744 22.2567 90.6264 22.44 89.7757 22.44C88.9837 22.44 88.3531 22.2787 87.8837 21.956C87.4291 21.6333 86.9964 21.076 86.5857 20.284V22H84.0997V6.6ZM87.3777 18.7C87.3924 18.7293 87.4217 18.7953 87.4657 18.898C87.5097 18.986 87.5391 19.052 87.5537 19.096C87.5831 19.1253 87.6271 19.1913 87.6857 19.294C87.7444 19.382 87.7957 19.448 87.8397 19.492C87.8984 19.536 87.9717 19.5947 88.0597 19.668C88.1477 19.7413 88.2357 19.7927 88.3237 19.822C88.4264 19.8513 88.5437 19.8807 88.6757 19.91C88.8077 19.9393 88.9544 19.954 89.1157 19.954C89.4384 19.954 89.7244 19.9027 89.9737 19.8C90.2231 19.6827 90.4137 19.514 90.5457 19.294C90.6924 19.0593 90.8097 18.8393 90.8977 18.634C90.9857 18.414 91.0444 18.1427 91.0737 17.82C91.1177 17.4827 91.1397 17.226 91.1397 17.05C91.1544 16.874 91.1617 16.6393 91.1617 16.346C91.1617 15.9793 91.1544 15.6933 91.1397 15.488C91.1397 15.268 91.1031 14.9673 91.0297 14.586C90.9564 14.2047 90.8537 13.904 90.7217 13.684C90.6044 13.464 90.4064 13.266 90.1277 13.09C89.8637 12.914 89.5411 12.826 89.1597 12.826C88.7931 12.826 88.4924 12.8773 88.2577 12.98C88.0231 13.0827 87.8617 13.1927 87.7737 13.31C87.7004 13.4273 87.6197 13.5667 87.5317 13.728C87.4584 13.8893 87.4071 13.992 87.3777 14.036V18.7ZM101.583 10.56C103.27 10.56 104.59 11.1247 105.543 12.254C106.497 13.3687 106.973 14.784 106.973 16.5C106.973 18.216 106.482 19.6313 105.499 20.746C104.517 21.8607 103.211 22.418 101.583 22.418C99.9114 22.418 98.606 21.8607 97.6674 20.746C96.7434 19.6167 96.2814 18.1647 96.2814 16.39C96.2814 14.7033 96.7507 13.31 97.6894 12.21C98.628 11.11 99.926 10.56 101.583 10.56ZM99.5374 12.98V19.998H103.717V12.98H99.5374ZM116.486 22V20.592C116.149 21.2373 115.724 21.7067 115.21 22C114.697 22.2933 113.905 22.44 112.834 22.44C111.47 22.44 110.444 22.0807 109.754 21.362C109.08 20.6287 108.742 19.6827 108.742 18.524V11H111.976V20.02H115.826V11H119.126V22H116.486ZM127.921 13.64H125.523V19.36H127.921V22H124.577C123.008 22 122.223 21.0907 122.223 19.272V13.64H120.661V11H122.223V6.6H125.523V11H127.921V13.64Z" fill="white"/>
<rect x="33" y="38" width="131" height="8" fill="white"/>
</svg>
